<svg xmlns="http://www.w3.org/2000/svg" width="532pt" height="420pt" viewBox="0.00 0.00 532.42 419.93" xmlns:xlink="http://www.w3.org/1999/xlink">
<style>
a.external_repository_anchor {
  fill: #0366d6;
  text-decoration: underline;
}
</style><g id="graph0" class="graph" transform="scale(1 1) rotate(0) translate(4 415.93)">
<title>NetworkGearDependenciesGraph</title>
<polygon fill="white" stroke="none" points="-4,4 -4,-415.93 528.42,-415.93 528.42,4 -4,4" />

<g id="node1" class="node">
<title>Bootstring</title>
<ellipse fill="none" stroke="black" cx="51.62" cy="-28.99" rx="51.62" ry="28.99" />
<text text-anchor="middle" x="51.62" y="-32.19" font-family="monospace" font-size="12px"><a href="https://github.com/YOCKOW/SwiftBootstring.git" xlink:href="https://github.com/YOCKOW/SwiftBootstring.git" class="external_repository_anchor">Bootstring</a></text>
<text text-anchor="middle" x="51.62" y="-15.69" font-family="monospace" font-size="12px">@1.1.0</text>
</g>

<g id="node2" class="node">
<title>NetworkGear</title>
<polygon fill="none" stroke="black" points="311.37,-411.93 221.87,-411.93 221.87,-375.93 311.37,-375.93 311.37,-411.93" />
<text text-anchor="middle" x="266.62" y="-388.88" font-family="monospace" font-size="12px">NetworkGear</text>
</g>

<g id="edge1" class="edge">
<title>NetworkGear-&gt;Bootstring</title>
<path fill="none" stroke="black" d="M244.56,-375.62C233.18,-365.95 219.63,-353.2 209.62,-339.93 142.48,-250.98 90.04,-129.24 65.99,-68.19" />
<polygon fill="black" stroke="black" points="69.28,-66.97 62.38,-58.93 62.75,-69.52 69.28,-66.97" />
</g>

<g id="node3" class="node">
<title>PublicSuffix</title>
<ellipse fill="none" stroke="black" cx="180.62" cy="-28.99" rx="59.57" ry="28.99" />
<text text-anchor="middle" x="180.62" y="-32.19" font-family="monospace" font-size="12px"><a href="https://github.com/YOCKOW/SwiftPublicSuffix.git" xlink:href="https://github.com/YOCKOW/SwiftPublicSuffix.git" class="external_repository_anchor">PublicSuffix</a></text>
<text text-anchor="middle" x="180.62" y="-15.69" font-family="monospace" font-size="12px">@2.2.0</text>
</g>

<g id="edge2" class="edge">
<title>NetworkGear-&gt;PublicSuffix</title>
<path fill="none" stroke="black" d="M252.2,-375.89C244.6,-366 235.8,-352.96 230.62,-339.93 194.01,-247.81 184.18,-130.15 181.56,-69.73" />
<polygon fill="black" stroke="black" points="185.06,-69.8 181.18,-59.95 178.07,-70.07 185.06,-69.8" />
</g>

<g id="node4" class="node">
<title>Ranges</title>
<ellipse fill="none" stroke="black" cx="307.62" cy="-28.99" rx="39.95" ry="28.99" />
<text text-anchor="middle" x="307.62" y="-32.19" font-family="monospace" font-size="12px"><a href="https://github.com/YOCKOW/SwiftRanges.git" xlink:href="https://github.com/YOCKOW/SwiftRanges.git" class="external_repository_anchor">Ranges</a></text>
<text text-anchor="middle" x="307.62" y="-15.69" font-family="monospace" font-size="12px">@3.1.3</text>
</g>

<g id="edge3" class="edge">
<title>NetworkGear-&gt;Ranges</title>
<path fill="none" stroke="black" d="M254.31,-375.72C247.97,-365.77 240.89,-352.73 237.62,-339.93 231.23,-314.96 234.14,-307.48 237.62,-281.95 248.2,-204.33 276.32,-116.87 293.53,-68.11" />
<polygon fill="black" stroke="black" points="296.76,-69.46 296.83,-58.86 290.17,-67.1 296.76,-69.46" />
</g>

<g id="node5" class="node">
<title>TemporaryFile</title>
<ellipse fill="none" stroke="black" cx="315.62" cy="-310.94" rx="69.12" ry="28.99" />
<text text-anchor="middle" x="315.62" y="-314.14" font-family="monospace" font-size="12px"><a href="https://github.com/YOCKOW/SwiftTemporaryFile.git" xlink:href="https://github.com/YOCKOW/SwiftTemporaryFile.git" class="external_repository_anchor">TemporaryFile</a></text>
<text text-anchor="middle" x="315.62" y="-297.64" font-family="monospace" font-size="12px">@4.0.7</text>
</g>

<g id="edge4" class="edge">
<title>NetworkGear-&gt;TemporaryFile</title>
<path fill="none" stroke="black" d="M277.01,-375.75C281.76,-367.9 287.59,-358.26 293.27,-348.88" />
<polygon fill="black" stroke="black" points="296.11,-350.95 298.29,-340.58 290.12,-347.33 296.11,-350.95" />
</g>

<g id="node6" class="node">
<title>UnicodeSupplement</title>
<ellipse fill="none" stroke="black" cx="434.62" cy="-122.97" rx="89.8" ry="28.99" />
<text text-anchor="middle" x="434.62" y="-126.17" font-family="monospace" font-size="12px"><a href="https://github.com/YOCKOW/SwiftUnicodeSupplement.git" xlink:href="https://github.com/YOCKOW/SwiftUnicodeSupplement.git" class="external_repository_anchor">UnicodeSupplement</a></text>
<text text-anchor="middle" x="434.62" y="-109.67" font-family="monospace" font-size="12px">@1.4.0</text>
</g>

<g id="edge5" class="edge">
<title>NetworkGear-&gt;UnicodeSupplement</title>
<path fill="none" stroke="black" d="M311.79,-388.21C344.55,-382.35 387.37,-369.25 412.62,-339.93 454.77,-291 450.34,-210.8 442.81,-163.13" />
<polygon fill="black" stroke="black" points="446.31,-162.79 441.17,-153.53 439.41,-163.98 446.31,-162.79" />
</g>

<g id="node7" class="node">
<title>yExtensions</title>
<ellipse fill="none" stroke="black" cx="364.62" cy="-216.96" rx="57.98" ry="28.99" />
<text text-anchor="middle" x="364.62" y="-220.16" font-family="monospace" font-size="12px"><a href="https://github.com/YOCKOW/ySwiftExtensions.git" xlink:href="https://github.com/YOCKOW/ySwiftExtensions.git" class="external_repository_anchor">yExtensions</a></text>
<text text-anchor="middle" x="364.62" y="-203.66" font-family="monospace" font-size="12px">@1.10.1</text>
</g>

<g id="edge6" class="edge">
<title>NetworkGear-&gt;yExtensions</title>
<path fill="none" stroke="black" d="M311.67,-386.88C340.37,-380.43 375.47,-367.17 393.62,-339.93 410.48,-314.62 400.3,-280.59 387.56,-254.91" />
<polygon fill="black" stroke="black" points="390.7,-253.36 382.93,-246.15 384.51,-256.63 390.7,-253.36" />
</g>

<g id="edge7" class="edge">
<title>TemporaryFile-&gt;Ranges</title>
<path fill="none" stroke="black" d="M305.95,-281.94C302.6,-270.87 299.27,-257.95 297.62,-245.95 289.16,-184.64 295.75,-112.72 301.51,-69.29" />
<polygon fill="black" stroke="black" points="304.94,-69.98 302.85,-59.59 298.01,-69.02 304.94,-69.98" />
</g>

<g id="edge8" class="edge">
<title>TemporaryFile-&gt;yExtensions</title>
<path fill="none" stroke="black" d="M330.32,-282.34C334.87,-273.81 339.95,-264.26 344.79,-255.18" />
<polygon fill="black" stroke="black" points="347.77,-257.03 349.38,-246.55 341.59,-253.73 347.77,-257.03" />
</g>

<g id="edge9" class="edge">
<title>UnicodeSupplement-&gt;Ranges</title>
<path fill="none" stroke="black" d="M398.9,-96.11C381.94,-83.82 361.69,-69.15 344.57,-56.75" />
<polygon fill="black" stroke="black" points="346.8,-54.05 336.65,-51.02 342.7,-59.72 346.8,-54.05" />
</g>

<g id="edge10" class="edge">
<title>yExtensions-&gt;Ranges</title>
<path fill="none" stroke="black" d="M350.68,-188.41C345.44,-177.29 339.75,-164.22 335.62,-151.97 326.48,-124.9 319.34,-93.46 314.56,-69.28" />
<polygon fill="black" stroke="black" points="318.01,-68.69 312.69,-59.53 311.14,-70.01 318.01,-68.69" />
</g>

<g id="edge11" class="edge">
<title>yExtensions-&gt;UnicodeSupplement</title>
<path fill="none" stroke="black" d="M384.87,-189.35C391.72,-180.34 399.5,-170.12 406.83,-160.48" />
<polygon fill="black" stroke="black" points="409.5,-162.76 412.77,-152.68 403.93,-158.52 409.5,-162.76" />
</g>
</g>
</svg>