<svg xmlns="http://www.w3.org/2000/svg" width="456pt" height="313pt" viewBox="0.00 0.00 455.95 313.22" xmlns:xlink="http://www.w3.org/1999/xlink">
<style>
a.external_repository_anchor {
  fill: #0366d6;
  text-decoration: underline;
}
</style><g id="graph0" class="graph" transform="scale(1 1) rotate(0) translate(4 309.22)">
<title>NetworkGearDependenciesGraph</title>
<polygon fill="white" stroke="none" points="-4,4 -4,-309.22 451.95,-309.22 451.95,4 -4,4" />

<g id="node1" class="node">
<title>Bootstring</title>
<ellipse fill="none" stroke="black" cx="52.33" cy="-26.87" rx="52.15" ry="26.74" />
<text text-anchor="middle" x="52.33" y="-30.67" font-family="monospace" font-size="12px"><a href="https://github.com/YOCKOW/SwiftBootstring.git" xlink:href="https://github.com/YOCKOW/SwiftBootstring.git" class="external_repository_anchor">Bootstring</a></text>
<text text-anchor="middle" x="52.33" y="-15.67" font-family="monospace" font-size="12px">@1.1.0</text>
</g>

<g id="node2" class="node">
<title>NetworkGear</title>
<polygon fill="none" stroke="black" points="265.33,-305.22 175.33,-305.22 175.33,-269.22 265.33,-269.22 265.33,-305.22" />
<text text-anchor="middle" x="220.33" y="-283.52" font-family="monospace" font-size="12px">NetworkGear</text>
</g>

<g id="edge1" class="edge">
<title>NetworkGear-&gt;Bootstring</title>
<path fill="none" stroke="black" d="M209.04,-268.87C181.5,-226.52 110.46,-117.27 74.25,-61.58" />
<polygon fill="black" stroke="black" points="76.71,-59.95 68.33,-53.48 70.84,-63.77 76.71,-59.95" />
</g>

<g id="node3" class="node">
<title>PublicSuffix</title>
<ellipse fill="none" stroke="black" cx="182.33" cy="-26.87" rx="60.21" ry="26.74" />
<text text-anchor="middle" x="182.33" y="-30.67" font-family="monospace" font-size="12px"><a href="https://github.com/YOCKOW/SwiftPublicSuffix.git" xlink:href="https://github.com/YOCKOW/SwiftPublicSuffix.git" class="external_repository_anchor">PublicSuffix</a></text>
<text text-anchor="middle" x="182.33" y="-15.67" font-family="monospace" font-size="12px">@2.1.0</text>
</g>

<g id="edge2" class="edge">
<title>NetworkGear-&gt;PublicSuffix</title>
<path fill="none" stroke="black" d="M215.16,-269.18C212.2,-258.85 208.63,-245.38 206.33,-233.22 195.27,-174.87 188.48,-106.18 185.06,-64.87" />
<polygon fill="black" stroke="black" points="188.47,-64.67 184.18,-54.98 181.5,-65.23 188.47,-64.67" />
</g>

<g id="node4" class="node">
<title>Ranges</title>
<ellipse fill="none" stroke="black" cx="339.33" cy="-26.87" rx="40.11" ry="26.74" />
<text text-anchor="middle" x="339.33" y="-30.67" font-family="monospace" font-size="12px"><a href="https://github.com/YOCKOW/SwiftRanges.git" xlink:href="https://github.com/YOCKOW/SwiftRanges.git" class="external_repository_anchor">Ranges</a></text>
<text text-anchor="middle" x="339.33" y="-15.67" font-family="monospace" font-size="12px">@3.1.2</text>
</g>

<g id="edge3" class="edge">
<title>NetworkGear-&gt;Ranges</title>
<path fill="none" stroke="black" d="M217.21,-268.86C211.64,-232.51 203.66,-147.06 239.33,-89.74 252.02,-69.33 274.19,-54.61 294.44,-44.66" />
<polygon fill="black" stroke="black" points="295.56,-47.53 303.17,-40.15 292.62,-41.18 295.56,-47.53" />
</g>

<g id="node5" class="node">
<title>UnicodeSupplement</title>
<ellipse fill="none" stroke="black" cx="339.33" cy="-116.61" rx="90.52" ry="26.74" />
<text text-anchor="middle" x="339.33" y="-120.41" font-family="monospace" font-size="12px"><a href="https://github.com/YOCKOW/SwiftUnicodeSupplement.git" xlink:href="https://github.com/YOCKOW/SwiftUnicodeSupplement.git" class="external_repository_anchor">UnicodeSupplement</a></text>
<text text-anchor="middle" x="339.33" y="-105.41" font-family="monospace" font-size="12px">@1.2.0</text>
</g>

<g id="edge4" class="edge">
<title>NetworkGear-&gt;UnicodeSupplement</title>
<path fill="none" stroke="black" d="M227.59,-269.04C237.25,-247.15 255.67,-208.66 277.33,-179.48 284.97,-169.19 294.3,-158.96 303.38,-149.88" />
<polygon fill="black" stroke="black" points="305.52,-152.7 310.25,-143.22 300.64,-147.69 305.52,-152.7" />
</g>

<g id="node6" class="node">
<title>yExtensions</title>
<ellipse fill="none" stroke="black" cx="345.33" cy="-206.35" rx="58.88" ry="26.74" />
<text text-anchor="middle" x="345.33" y="-210.15" font-family="monospace" font-size="12px"><a href="https://github.com/YOCKOW/ySwiftExtensions.git" xlink:href="https://github.com/YOCKOW/ySwiftExtensions.git" class="external_repository_anchor">yExtensions</a></text>
<text text-anchor="middle" x="345.33" y="-195.15" font-family="monospace" font-size="12px">@1.7.6</text>
</g>

<g id="edge5" class="edge">
<title>NetworkGear-&gt;yExtensions</title>
<path fill="none" stroke="black" d="M247.76,-268.91C263.79,-258.8 284.38,-245.81 302.51,-234.37" />
<polygon fill="black" stroke="black" points="304.13,-236.85 310.72,-228.55 300.4,-230.93 304.13,-236.85" />
</g>

<g id="edge6" class="edge">
<title>UnicodeSupplement-&gt;Ranges</title>
<path fill="none" stroke="black" d="M339.33,-89.76C339.33,-81.89 339.33,-73.08 339.33,-64.63" />
<polygon fill="black" stroke="black" points="342.83,-64.84 339.33,-54.84 335.83,-64.84 342.83,-64.84" />
</g>

<g id="edge7" class="edge">
<title>yExtensions-&gt;Ranges</title>
<path fill="none" stroke="black" d="M388.78,-188.23C407.91,-178.25 428.48,-163.6 439.33,-143.48 450.66,-122.46 450.95,-110.6 439.33,-89.74 427.54,-68.59 405.21,-53.76 384.64,-43.93" />
<polygon fill="black" stroke="black" points="386.3,-40.39 375.74,-39.5 383.44,-46.78 386.3,-40.39" />
</g>

<g id="edge8" class="edge">
<title>yExtensions-&gt;UnicodeSupplement</title>
<path fill="none" stroke="black" d="M343.56,-179.5C343.02,-171.63 342.42,-162.82 341.84,-154.37" />
<polygon fill="black" stroke="black" points="345.28,-154.32 341.1,-144.58 338.29,-154.79 345.28,-154.32" />
</g>
</g>
</svg>