<svg xmlns="http://www.w3.org/2000/svg" width="537pt" height="420pt" viewBox="0.00 0.00 537.00 420.00" xmlns:xlink="http://www.w3.org/1999/xlink">
<style>
a.external_repository_anchor {
  fill: #0366d6;
  text-decoration: underline;
}
</style><g id="graph0" class="graph" transform="scale(1 1) rotate(0) translate(4 415.93)">
<title>NetworkGearDependenciesGraph</title>
<polygon fill="white" stroke="none" points="-4,4 -4,-415.93 533.42,-415.93 533.42,4 -4,4" />

<g id="node1" class="node">
<title>Bootstring</title>
<ellipse fill="none" stroke="black" cx="51.62" cy="-28.99" rx="51.62" ry="28.99" />
<text xml:space="preserve" text-anchor="middle" x="51.62" y="-32.19" font-family="monospace" font-size="12px"><a href="https://github.com/YOCKOW/SwiftBootstring.git" xlink:href="https://github.com/YOCKOW/SwiftBootstring.git" class="external_repository_anchor">Bootstring</a></text>
<text xml:space="preserve" text-anchor="middle" x="51.62" y="-15.69" font-family="monospace" font-size="12px">@1.2.0</text>
</g>

<g id="node2" class="node">
<title>NetworkGear</title>
<polygon fill="none" stroke="black" points="316.37,-411.93 226.87,-411.93 226.87,-375.93 316.37,-375.93 316.37,-411.93" />
<text xml:space="preserve" text-anchor="middle" x="271.62" y="-388.88" font-family="monospace" font-size="12px">NetworkGear</text>
</g>

<g id="edge1" class="edge">
<title>NetworkGear-&gt;Bootstring</title>
<path fill="none" stroke="black" d="M248.5,-375.49C236.79,-365.87 222.9,-353.21 212.62,-339.93 144.11,-251.48 90.72,-129.52 66.24,-68.3" />
<polygon fill="black" stroke="black" points="69.5,-67.02 62.57,-59.01 62.99,-69.6 69.5,-67.02" />
</g>

<g id="node3" class="node">
<title>PublicSuffix</title>
<ellipse fill="none" stroke="black" cx="185.62" cy="-28.99" rx="64.35" ry="28.99" />
<text xml:space="preserve" text-anchor="middle" x="185.62" y="-32.19" font-family="monospace" font-size="12px"><a href="https://github.com/YOCKOW/SwiftPublicSuffix.git" xlink:href="https://github.com/YOCKOW/SwiftPublicSuffix.git" class="external_repository_anchor">PublicSuffix</a></text>
<text xml:space="preserve" text-anchor="middle" x="185.62" y="-15.69" font-family="monospace" font-size="12px">@unspecified</text>
</g>

<g id="edge2" class="edge">
<title>NetworkGear-&gt;PublicSuffix</title>
<path fill="none" stroke="black" d="M256.4,-375.48C248.66,-365.68 239.82,-352.84 234.62,-339.93 197.58,-248.03 188.44,-130.27 186.25,-69.79" />
<polygon fill="black" stroke="black" points="189.75,-69.87 185.94,-59.99 182.76,-70.09 189.75,-69.87" />
</g>

<g id="node4" class="node">
<title>Ranges</title>
<ellipse fill="none" stroke="black" cx="314.62" cy="-28.99" rx="39.95" ry="28.99" />
<text xml:space="preserve" text-anchor="middle" x="314.62" y="-32.19" font-family="monospace" font-size="12px"><a href="https://github.com/YOCKOW/SwiftRanges.git" xlink:href="https://github.com/YOCKOW/SwiftRanges.git" class="external_repository_anchor">Ranges</a></text>
<text xml:space="preserve" text-anchor="middle" x="314.62" y="-15.69" font-family="monospace" font-size="12px">@3.2.2</text>
</g>

<g id="edge3" class="edge">
<title>NetworkGear-&gt;Ranges</title>
<path fill="none" stroke="black" d="M259.31,-375.72C252.97,-365.77 245.89,-352.73 242.62,-339.93 236.23,-314.96 239.09,-307.48 242.62,-281.95 253.37,-204.19 282.34,-116.78 300.08,-68.06" />
<polygon fill="black" stroke="black" points="303.32,-69.42 303.49,-58.82 296.75,-67 303.32,-69.42" />
</g>

<g id="node5" class="node">
<title>TemporaryFile</title>
<ellipse fill="none" stroke="black" cx="320.62" cy="-310.94" rx="69.12" ry="28.99" />
<text xml:space="preserve" text-anchor="middle" x="320.62" y="-314.14" font-family="monospace" font-size="12px"><a href="https://github.com/YOCKOW/SwiftTemporaryFile.git" xlink:href="https://github.com/YOCKOW/SwiftTemporaryFile.git" class="external_repository_anchor">TemporaryFile</a></text>
<text xml:space="preserve" text-anchor="middle" x="320.62" y="-297.64" font-family="monospace" font-size="12px">@4.2.1</text>
</g>

<g id="edge4" class="edge">
<title>NetworkGear-&gt;TemporaryFile</title>
<path fill="none" stroke="black" d="M282.01,-375.75C286.76,-367.9 292.59,-358.26 298.27,-348.88" />
<polygon fill="black" stroke="black" points="301.11,-350.95 303.29,-340.58 295.12,-347.33 301.11,-350.95" />
</g>

<g id="node6" class="node">
<title>UnicodeSupplement</title>
<ellipse fill="none" stroke="black" cx="439.62" cy="-122.97" rx="89.8" ry="28.99" />
<text xml:space="preserve" text-anchor="middle" x="439.62" y="-126.17" font-family="monospace" font-size="12px"><a href="https://github.com/YOCKOW/SwiftUnicodeSupplement.git" xlink:href="https://github.com/YOCKOW/SwiftUnicodeSupplement.git" class="external_repository_anchor">UnicodeSupplement</a></text>
<text xml:space="preserve" text-anchor="middle" x="439.62" y="-109.67" font-family="monospace" font-size="12px">@1.7.0</text>
</g>

<g id="edge5" class="edge">
<title>NetworkGear-&gt;UnicodeSupplement</title>
<path fill="none" stroke="black" d="M316.74,-387.98C349.19,-382.02 391.49,-368.87 416.62,-339.93 458.98,-291.14 454.93,-210.9 447.63,-163.18" />
<polygon fill="black" stroke="black" points="451.12,-162.85 446.03,-153.57 444.22,-164 451.12,-162.85" />
</g>

<g id="node7" class="node">
<title>yExtensions</title>
<ellipse fill="none" stroke="black" cx="369.62" cy="-216.96" rx="57.98" ry="28.99" />
<text xml:space="preserve" text-anchor="middle" x="369.62" y="-220.16" font-family="monospace" font-size="12px"><a href="https://github.com/YOCKOW/ySwiftExtensions.git" xlink:href="https://github.com/YOCKOW/ySwiftExtensions.git" class="external_repository_anchor">yExtensions</a></text>
<text xml:space="preserve" text-anchor="middle" x="369.62" y="-203.66" font-family="monospace" font-size="12px">@1.12.1</text>
</g>

<g id="edge6" class="edge">
<title>NetworkGear-&gt;yExtensions</title>
<path fill="none" stroke="black" d="M316.67,-386.88C345.37,-380.43 380.47,-367.17 398.62,-339.93 415.48,-314.62 405.3,-280.59 392.56,-254.91" />
<polygon fill="black" stroke="black" points="395.7,-253.36 387.93,-246.15 389.51,-256.63 395.7,-253.36" />
</g>

<g id="edge7" class="edge">
<title>TemporaryFile-&gt;Ranges</title>
<path fill="none" stroke="black" d="M310.95,-281.94C307.6,-270.87 304.27,-257.95 302.62,-245.95 294.16,-184.62 301.57,-112.7 307.92,-69.28" />
<polygon fill="black" stroke="black" points="311.36,-70 309.4,-59.58 304.44,-68.94 311.36,-70" />
</g>

<g id="edge8" class="edge">
<title>TemporaryFile-&gt;yExtensions</title>
<path fill="none" stroke="black" d="M335.32,-282.34C339.87,-273.81 344.95,-264.26 349.79,-255.18" />
<polygon fill="black" stroke="black" points="352.77,-257.03 354.38,-246.55 346.59,-253.73 352.77,-257.03" />
</g>

<g id="edge9" class="edge">
<title>UnicodeSupplement-&gt;Ranges</title>
<path fill="none" stroke="black" d="M404.13,-95.86C387.57,-83.67 367.87,-69.18 351.17,-56.89" />
<polygon fill="black" stroke="black" points="353.59,-54.32 343.46,-51.22 349.44,-59.96 353.59,-54.32" />
</g>

<g id="edge10" class="edge">
<title>yExtensions-&gt;Ranges</title>
<path fill="none" stroke="black" d="M355.58,-188.44C350.32,-177.33 344.66,-164.25 340.62,-151.97 331.72,-124.92 325.11,-93.48 320.78,-69.3" />
<polygon fill="black" stroke="black" points="324.24,-68.8 319.09,-59.55 317.34,-70 324.24,-68.8" />
</g>

<g id="edge11" class="edge">
<title>yExtensions-&gt;UnicodeSupplement</title>
<path fill="none" stroke="black" d="M389.87,-189.35C396.72,-180.34 404.5,-170.12 411.83,-160.48" />
<polygon fill="black" stroke="black" points="414.5,-162.76 417.77,-152.68 408.93,-158.52 414.5,-162.76" />
</g>
</g>
</svg>